<svg width="82" height="82" viewBox="0 0 82 82" fill="none" xmlns="http://www.w3.org/2000/svg">
<g clip-path="url(#clip0_234_101)">
<path fill-rule="evenodd" clip-rule="evenodd" d="M21.5253 1.59006C26.85 0.40672 33.3096 0 41 0C48.6904 0 55.1499 0.40672 60.4746 1.59006C65.846 2.78378 70.3101 4.8216 73.7442 8.25568C77.1784 11.6898 79.2161 16.1541 80.41 21.5253C81.5933 26.85 82 33.3096 82 41C82 48.6904 81.5933 55.1499 80.41 60.4746C79.2161 65.846 77.1784 70.3101 73.7442 73.7442C70.3101 77.1784 65.846 79.2161 60.4746 80.41C55.1499 81.5933 48.6904 82 41 82C33.3096 82 26.85 81.5933 21.5253 80.41C16.1541 79.2161 11.6898 77.1784 8.25568 73.7442C4.8216 70.3101 2.78378 65.846 1.59006 60.4746C0.40672 55.1499 0 48.6904 0 41C0 33.3096 0.40672 26.85 1.59006 21.5253C2.78378 16.1541 4.8216 11.6898 8.25568 8.25568C11.6898 4.8216 16.1541 2.78378 21.5253 1.59006Z" fill="url(#paint0_linear_234_101)" fill-opacity="0.6"/>
<path fill-rule="evenodd" clip-rule="evenodd" d="M21.5253 1.59006C26.85 0.40672 33.3096 0 41 0C48.6904 0 55.1499 0.40672 60.4746 1.59006C65.846 2.78378 70.3101 4.8216 73.7442 8.25568C77.1784 11.6898 79.2161 16.1541 80.41 21.5253C81.5933 26.85 82 33.3096 82 41C82 48.6904 81.5933 55.1499 80.41 60.4746C79.2161 65.846 77.1784 70.3101 73.7442 73.7442C70.3101 77.1784 65.846 79.2161 60.4746 80.41C55.1499 81.5933 48.6904 82 41 82C33.3096 82 26.85 81.5933 21.5253 80.41C16.1541 79.2161 11.6898 77.1784 8.25568 73.7442C4.8216 70.3101 2.78378 65.846 1.59006 60.4746C0.40672 55.1499 0 48.6904 0 41C0 33.3096 0.40672 26.85 1.59006 21.5253C2.78378 16.1541 4.8216 11.6898 8.25568 8.25568C11.6898 4.8216 16.1541 2.78378 21.5253 1.59006Z" fill="url(#paint1_linear_234_101)"/>
<mask id="mask0_234_101" style="mask-type:alpha" maskUnits="userSpaceOnUse" x="-3" y="10" width="88" height="93">
<path d="M37.3333 37V25.375H26.3333C24.3082 25.375 22.6666 23.6401 22.6666 21.5C22.6666 19.3599 24.3082 17.625 26.3333 17.625H41C43.025 17.625 44.6666 19.3599 44.6666 21.5V37C44.6666 39.1401 43.025 40.875 41 40.875C38.9749 40.875 37.3333 39.1401 37.3333 37Z" fill="#3D2601"/>
<path d="M44.1666 21.5C44.1666 19.6096 42.7229 18.125 40.9996 18.125H26.3336C24.6104 18.125 23.1666 19.6096 23.1666 21.5C23.1666 23.3904 24.6104 24.875 26.3336 24.875H37.3336C37.6096 24.8752 37.8336 25.099 37.8336 25.375V37C37.8336 38.8902 39.2766 40.3748 40.9996 40.375C42.7229 40.375 44.1666 38.8904 44.1666 37V21.5ZM45.1666 37C45.1666 39.3899 43.3265 41.375 40.9996 41.375C38.6729 41.3748 36.8336 39.3897 36.8336 37V25.875H26.3336C24.0068 25.875 22.1666 23.8899 22.1666 21.5C22.1666 19.1101 24.0068 17.125 26.3336 17.125H40.9996C43.3265 17.125 45.1666 19.1101 45.1666 21.5V37Z" fill="black"/>
<path d="M66.6667 48.5714C66.6667 46.4412 65.025 44.7143 63 44.7143H19C16.975 44.7143 15.3333 46.4412 15.3333 48.5714V79.4286C15.3333 81.5588 16.975 83.2857 19 83.2857H63C65.025 83.2857 66.6667 81.5588 66.6667 79.4286V48.5714ZM74 79.4286C74 85.8193 69.0751 91 63 91H19C12.9249 91 8 85.8193 8 79.4286V48.5714C8 42.1807 12.9249 37 19 37H63C69.0751 37 74 42.1807 74 48.5714V79.4286Z" fill="#3D2601"/>
<path d="M73.5 48.5713C73.4999 42.4326 68.7754 37.5 63 37.5H19C13.2246 37.5 8.50007 42.4326 8.5 48.5713V79.4287C8.50007 85.5674 13.2246 90.5 19 90.5H63C68.7754 90.5 73.4999 85.5674 73.5 79.4287V48.5713ZM66.167 48.5713C66.1669 46.6931 64.7253 45.2139 63 45.2139H19C17.2747 45.2139 15.8331 46.6931 15.833 48.5713V79.4287C15.8331 81.3069 17.2747 82.7861 19 82.7861H63C64.7253 82.7861 66.1669 81.3069 66.167 79.4287V48.5713ZM67.167 79.4287C67.1669 81.8109 65.3247 83.7861 63 83.7861H19C16.6753 83.7861 14.8331 81.8109 14.833 79.4287V48.5713C14.8331 46.1891 16.6753 44.2139 19 44.2139H63C65.3247 44.2139 67.1669 46.1891 67.167 48.5713V79.4287ZM74.5 79.4287C74.4999 86.0714 69.3748 91.5 63 91.5H19C12.6252 91.5 7.50007 86.0714 7.5 79.4287V48.5713C7.50007 41.9286 12.6252 36.5 19 36.5H63C69.3748 36.5 74.4999 41.9286 74.5 48.5713V79.4287Z" fill="black"/>
<path d="M11.6666 60.375C13.6917 60.375 15.3333 62.1099 15.3333 64.25C15.3333 66.3901 13.6917 68.125 11.6666 68.125H4.33329C2.30825 68.125 0.666626 66.3901 0.666626 64.25C0.666626 62.1099 2.30825 60.375 4.33329 60.375H11.6666Z" fill="#3D2601"/>
<path d="M14.8336 64.25C14.8336 62.3596 13.3899 60.875 11.6666 60.875H4.33362C2.61039 60.875 1.16663 62.3596 1.16663 64.25C1.16663 66.1404 2.61039 67.625 4.33362 67.625H11.6666C13.3899 67.625 14.8336 66.1404 14.8336 64.25ZM15.8336 64.25C15.8336 66.6399 13.9935 68.625 11.6666 68.625H4.33362C2.00676 68.625 0.166626 66.6399 0.166626 64.25C0.166626 61.8602 2.00676 59.875 4.33362 59.875H11.6666C13.9935 59.875 15.8336 61.8602 15.8336 64.25Z" fill="black"/>
<path d="M77.6666 60.375C79.6917 60.375 81.3333 62.1099 81.3333 64.25C81.3333 66.3901 79.6917 68.125 77.6666 68.125H70.3333C68.3082 68.125 66.6666 66.3901 66.6666 64.25C66.6666 62.1099 68.3082 60.375 70.3333 60.375H77.6666Z" fill="#3D2601"/>
<path d="M80.8336 64.25C80.8336 62.4189 79.4789 60.968 77.8278 60.8789L77.6666 60.875H70.3336C68.6104 60.875 67.1666 62.3596 67.1666 64.25C67.1666 66.1404 68.6104 67.625 70.3336 67.625H77.6666C79.3899 67.625 80.8336 66.1404 80.8336 64.25ZM81.8336 64.25C81.8336 66.6399 79.9935 68.625 77.6666 68.625H70.3336C68.0068 68.625 66.1666 66.6399 66.1666 64.25C66.1666 61.8602 68.0068 59.875 70.3336 59.875H77.6666L77.8834 59.8809C80.1067 59.9996 81.8336 61.9349 81.8336 64.25Z" fill="black"/>
<path d="M47.875 68.4883V60.4961C47.875 58.2891 49.7218 56.5 52 56.5C54.2782 56.5 56.125 58.2891 56.125 60.4961V68.4883C56.125 70.6953 54.2782 72.4844 52 72.4844C49.7218 72.4844 47.875 70.6953 47.875 68.4883Z" fill="#3D2601"/>
<path d="M55.625 60.4961C55.625 58.5801 54.0171 57 52 57C49.9829 57 48.375 58.5801 48.375 60.4961V68.4883C48.375 70.4043 49.9829 71.9844 52 71.9844C54.0171 71.9844 55.625 70.4043 55.625 68.4883V60.4961ZM56.625 68.4883C56.625 70.9862 54.5392 72.9844 52 72.9844C49.4608 72.9844 47.375 70.9862 47.375 68.4883V60.4961C47.375 57.9981 49.4608 56 52 56C54.5392 56 56.625 57.9981 56.625 60.4961V68.4883Z" fill="black"/>
<path d="M25.875 68.4883V60.4961C25.875 58.2891 27.7218 56.5 30 56.5C32.2782 56.5 34.125 58.2891 34.125 60.4961V68.4883C34.125 70.6953 32.2782 72.4844 30 72.4844C27.7218 72.4844 25.875 70.6953 25.875 68.4883Z" fill="#3D2601"/>
<path d="M33.625 60.4961C33.625 58.5801 32.0171 57 30 57C27.9829 57 26.375 58.5801 26.375 60.4961V68.4883C26.375 70.4043 27.9829 71.9844 30 71.9844C32.0171 71.9844 33.625 70.4043 33.625 68.4883V60.4961ZM34.625 68.4883C34.625 70.9862 32.5392 72.9844 30 72.9844C27.4608 72.9844 25.375 70.9862 25.375 68.4883V60.4961C25.375 57.9981 27.4608 56 30 56C32.5392 56 34.625 57.9981 34.625 60.4961V68.4883Z" fill="black"/>
</mask>
<g mask="url(#mask0_234_101)">
<path fill-rule="evenodd" clip-rule="evenodd" d="M21.5253 1.59006C26.85 0.40672 33.3096 0 41 0C48.6904 0 55.1499 0.40672 60.4746 1.59006C65.846 2.78378 70.3101 4.8216 73.7442 8.25568C77.1784 11.6898 79.2161 16.1541 80.41 21.5253C81.5933 26.85 82 33.3096 82 41C82 48.6904 81.5933 55.1499 80.41 60.4746C79.2161 65.846 77.1784 70.3101 73.7442 73.7442C70.3101 77.1784 65.846 79.2161 60.4746 80.41C55.1499 81.5933 48.6904 82 41 82C33.3096 82 26.85 81.5933 21.5253 80.41C16.1541 79.2161 11.6898 77.1784 8.25568 73.7442C4.8216 70.3101 2.78378 65.846 1.59006 60.4746C0.40672 55.1499 0 48.6904 0 41C0 33.3096 0.40672 26.85 1.59006 21.5253C2.78378 16.1541 4.8216 11.6898 8.25568 8.25568C11.6898 4.8216 16.1541 2.78378 21.5253 1.59006Z" fill="url(#paint2_linear_234_101)"/>
</g>
</g>
<defs>
<linearGradient id="paint0_linear_234_101" x1="41" y1="0" x2="41" y2="82" gradientUnits="userSpaceOnUse">
<stop stop-color="#444444" stop-opacity="0"/>
<stop offset="0.8" stop-color="#401D00" stop-opacity="0.1"/>
<stop offset="1" stop-color="#401D00" stop-opacity="0.17"/>
</linearGradient>
<linearGradient id="paint1_linear_234_101" x1="75" y1="6" x2="6.5" y2="78.5" gradientUnits="userSpaceOnUse">
<stop stop-color="#FF0000"/>
<stop offset="1" stop-color="#974E4E"/>
</linearGradient>
<linearGradient id="paint2_linear_234_101" x1="41" y1="0" x2="41" y2="82" gradientUnits="userSpaceOnUse">
<stop stop-color="#FFFCFC"/>
<stop offset="0.692308" stop-color="white" stop-opacity="0.35"/>
<stop offset="1" stop-color="#81221F"/>
</linearGradient>
<clipPath id="clip0_234_101">
<rect width="82" height="82" fill="white"/>
</clipPath>
</defs>
</svg>
